<svg width="15" height="16" viewBox="0 0 15 16" fill="none" xmlns="http://www.w3.org/2000/svg">
<path d="M7.98027 12.3C6.71361 12.3 5.71361 11.92 4.98027 11.16C4.24694 10.3867 3.88027 9.32666 3.88027 7.97999C3.88027 7.12666 4.04694 6.37333 4.38027 5.71999C4.71361 5.06666 5.18694 4.55999 5.80027 4.19999C6.42694 3.82666 7.15361 3.63999 7.98027 3.63999C8.98027 3.63999 9.78694 3.90666 10.4003 4.43999C11.0136 4.95999 11.4136 5.63999 11.6003 6.47999L10.1203 6.77999C9.98694 6.19333 9.76694 5.73999 9.46027 5.41999C9.15361 5.09999 8.66027 4.93999 7.98027 4.93999C7.03361 4.93999 6.38694 5.19999 6.04027 5.71999C5.69361 6.22666 5.52027 6.97999 5.52027 7.97999C5.52027 8.99333 5.69361 9.75333 6.04027 10.26C6.38694 10.7533 7.03361 11 7.98027 11C8.62027 11 9.10694 10.88 9.44027 10.64C9.77361 10.3867 10.0069 9.96666 10.1403 9.37999L11.6403 9.57999C11.4936 10.4067 11.0869 11.0667 10.4203 11.56C9.75361 12.0533 8.94027 12.3 7.98027 12.3ZM7.86027 15.22C6.54027 15.22 5.34027 14.9067 4.26027 14.28C3.18027 13.6533 2.32694 12.7933 1.70027 11.7C1.08694 10.5933 0.780273 9.35999 0.780273 7.99999C0.780273 6.62666 1.08694 5.39333 1.70027 4.29999C2.32694 3.19333 3.18027 2.32666 4.26027 1.69999C5.34027 1.07333 6.54027 0.759995 7.86027 0.759995C9.18027 0.759995 10.3803 1.07333 11.4603 1.69999C12.5536 2.32666 13.4136 3.19333 14.0403 4.29999C14.6803 5.39333 15.0003 6.62666 15.0003 7.99999C15.0003 9.35999 14.6803 10.5933 14.0403 11.7C13.4136 12.7933 12.5536 13.6533 11.4603 14.28C10.3803 14.9067 9.18027 15.22 7.86027 15.22ZM7.86027 14.3C9.00694 14.3 10.0403 14.0267 10.9603 13.48C11.8936 12.9333 12.6203 12.18 13.1403 11.22C13.6736 10.26 13.9403 9.18666 13.9403 7.99999C13.9403 6.79999 13.6736 5.71999 13.1403 4.75999C12.6203 3.78666 11.8936 3.02666 10.9603 2.47999C10.0403 1.91999 9.00694 1.63999 7.86027 1.63999C6.72694 1.63999 5.69361 1.91999 4.76027 2.47999C3.84027 3.02666 3.11361 3.78666 2.58027 4.75999C2.06027 5.71999 1.80027 6.79999 1.80027 7.99999C1.80027 9.18666 2.06027 10.26 2.58027 11.22C3.11361 12.18 3.84027 12.9333 4.76027 13.48C5.69361 14.0267 6.72694 14.3 7.86027 14.3Z" fill="#1B1917"/>
</svg>
