<svg width="12" height="12" viewBox="0 0 12 12" fill="none" xmlns="http://www.w3.org/2000/svg">
<g id="Asset 1 1">
<g id="Layer 1">
<path id="Vector" fill-rule="evenodd" clip-rule="evenodd" d="M2.88865 1.33994C2.39795 1.68688 2.10612 2.25066 2.10612 2.85185C2.10612 2.93694 2.11968 3.0353 2.11968 3.1204C2.03462 3.12487 1.93183 3.11146 1.84691 3.11146C0.831693 3.11146 0 3.93902 0 4.95897C0 5.5764 0.32654 6.16224 0.836162 6.50217C0.32654 6.84658 0 7.42824 0 8.04999C0 9.06533 0.831693 9.89303 1.84691 9.89303C1.93168 9.89303 2.02568 9.87992 2.11968 9.87992C2.11968 9.96472 2.10612 10.0675 2.10612 10.1528C2.10612 10.7742 2.41493 11.3245 2.88865 11.6602C3.1994 11.8817 3.57138 12.0005 3.95289 12C4.57438 12 5.15581 11.678 5.49546 11.1635C5.82647 11.6781 6.42532 12 7.04235 12C7.42401 12.0012 7.79643 11.8824 8.10688 11.6602C8.58075 11.3246 8.88912 10.7742 8.88912 10.1528C8.88912 10.0675 8.87601 9.96472 8.87601 9.87992C8.96539 9.87992 9.06803 9.89303 9.15309 9.89303C10.1682 9.89303 11 9.06562 11 8.04999C11 7.42824 10.6736 6.84658 10.1592 6.50217C10.6736 6.16224 11 5.57625 11 4.95897C11 3.93902 10.1683 3.11161 9.15309 3.11161C9.06832 3.11161 8.96554 3.12487 8.87601 3.12487C8.87601 3.04007 8.88912 2.93694 8.88912 2.852C8.88912 2.25081 8.59743 1.68718 8.10688 1.34009C7.79643 1.11774 7.42401 0.998817 7.04235 1.00001C6.42532 1.00001 5.83958 1.32653 5.49993 1.83651C5.15566 1.32653 4.57423 1.00001 3.95289 1.00001C3.57138 0.999562 3.19925 1.11849 2.88865 1.33994ZM8.10688 10.783C7.89669 11.1677 7.48955 11.4315 7.02447 11.4315C6.37169 11.4315 5.79042 10.9173 5.79042 10.2643V7.44612C5.79042 7.08815 6.09014 6.7974 6.43426 6.7974H9.26481C9.91759 6.7974 10.4272 7.37876 10.4272 8.03196C10.4272 8.68515 9.86829 9.27114 9.18407 9.27114C8.77739 9.27114 8.38366 9.05639 8.15574 8.72092C8.18703 8.64491 8.20475 8.5555 8.20475 8.4704C8.20475 8.34075 8.16885 8.21988 8.10658 8.11258C7.98145 7.89783 7.74876 7.75014 7.48508 7.75014C7.09151 7.75014 6.76959 8.07234 6.76959 8.4704C6.76959 8.86846 7.09151 9.19066 7.48508 9.19066C7.55644 9.19066 7.62809 9.1774 7.69498 9.15936C7.86913 9.26786 8.01124 9.42076 8.10673 9.60243C8.20624 9.78335 8.25853 9.98648 8.25838 10.1929C8.25987 10.3994 8.20758 10.6029 8.10688 10.7832V10.783ZM8.10688 6.21141H6.43441C6.09029 6.21141 5.79056 5.92066 5.79056 5.56716V2.74022C5.79056 2.08718 6.37169 1.57258 7.02462 1.57258C7.48955 1.57258 7.89683 1.83666 8.10703 2.2213C8.2052 2.39567 8.25868 2.59701 8.25868 2.81176C8.25823 3.01965 8.20609 3.22397 8.10703 3.40668C8.00916 3.58775 7.86764 3.7414 7.69528 3.85392C7.62765 3.83082 7.55689 3.8186 7.48538 3.818C7.09181 3.818 6.76989 4.14453 6.76989 4.53841C6.76989 4.9323 7.09181 5.25867 7.48538 5.25867C7.74265 5.25867 7.98011 5.12022 8.10688 4.89623C8.17138 4.78804 8.20535 4.66434 8.20505 4.53841C8.20505 4.45332 8.18732 4.36852 8.15604 4.29236C8.38396 3.95243 8.77754 3.73768 9.18437 3.73768C9.86858 3.73768 10.4275 4.29684 10.4275 4.97671C10.4275 5.65658 9.91804 6.21589 9.26511 6.21589L8.10688 6.21156V6.21141ZM2.88865 10.783C2.78974 10.6018 2.7376 10.399 2.73656 10.1926C2.73656 9.98603 2.78884 9.7829 2.88865 9.60213C2.98399 9.42061 3.12596 9.26771 3.29996 9.15907C3.36699 9.1771 3.4385 9.19036 3.51 9.19036C3.90358 9.19036 4.2255 8.86831 4.2255 8.4701C4.2255 8.0719 3.90343 7.74984 3.51 7.74984C3.24633 7.74984 3.01364 7.89753 2.8885 8.11228C2.82579 8.22093 2.79331 8.34447 2.79465 8.4701C2.79465 8.5552 2.81268 8.64462 2.83934 8.72062C2.60815 9.06235 2.22336 9.26816 1.81086 9.27084C1.12665 9.27084 0.572338 8.71168 0.572338 8.03166C0.572338 7.35164 1.07764 6.7971 1.73489 6.7971H4.56098C4.90524 6.7971 5.20497 7.08786 5.20497 7.44582V10.2641C5.20497 10.9172 4.62354 11.4313 3.97523 11.4313C3.50568 11.4313 3.09885 11.1675 2.8888 10.7829L2.88865 10.783ZM2.88865 6.21141L1.73504 6.21589C1.07794 6.21589 0.572487 5.63452 0.572487 4.97671C0.572487 4.31889 1.12695 3.73768 1.81101 3.73768C2.2247 3.74021 2.61008 3.94811 2.83949 4.29236C2.81089 4.37135 2.79585 4.45451 2.7948 4.53841C2.7948 4.66807 2.82609 4.7934 2.88865 4.89623C3.01543 5.12022 3.25288 5.25867 3.51015 5.25867C3.90373 5.25867 4.22565 4.93647 4.22565 4.53841C4.22565 4.14035 3.90358 3.818 3.51015 3.818C3.43865 3.818 3.36699 3.83127 3.3001 3.85392C3.1279 3.7414 2.98653 3.5876 2.8888 3.40668C2.78959 3.22412 2.7373 3.01965 2.73671 2.81176C2.73671 2.59716 2.7948 2.39582 2.8888 2.2213C3.09885 1.83666 3.50598 1.57258 3.97538 1.57258C4.62384 1.57258 5.20512 2.08718 5.20512 2.74022V5.56731C5.20512 5.92066 4.90539 6.21156 4.56113 6.21156H2.8885L2.88865 6.21141Z" fill="#D7D2CB"/>
</g>
</g>
</svg>
