<svg width="401" height="401" viewBox="0 0 401 401" fill="none" xmlns="http://www.w3.org/2000/svg">
<path d="M200.5 0.5C310.957 0.5 400.5 90.0431 400.5 200.5C400.5 310.957 310.957 400.5 200.5 400.5C90.0431 400.5 0.5 310.957 0.5 200.5C0.5 90.0431 90.0431 0.5 200.5 0.5ZM201.107 19.6494C150.292 19.6494 120.988 48.6818 106.132 74.4102C91.2754 100.138 77.0957 141.829 77.0957 190.821C77.0957 239.813 80.81 279.918 107.947 326.912C128.904 363.203 168.441 380.743 201.107 380.743C233.774 380.743 273.096 365.674 295.479 326.912C317.861 288.15 325.12 248.887 325.12 190.821C325.12 132.756 311.206 100.601 296.083 74.4102C280.96 48.2195 251.922 19.6494 201.107 19.6494Z" fill="#1B1917"/>
</svg>
